<?xml version="1.0" standalone="no"?>
<!DOCTYPE svg PUBLIC "-//W3C//DTD SVG 20010904//EN"
 "http://www.w3.org/TR/2001/REC-SVG-20010904/DTD/svg10.dtd">
<svg version="1.0" xmlns="http://www.w3.org/2000/svg"
 width="576.000000pt" height="576.000000pt" viewBox="0 0 576.000000 576.000000"
 preserveAspectRatio="xMidYMid meet">
<metadata>
Created by potrace 1.14, written by Peter Selinger 2001-2017
</metadata>
<g transform="translate(0.000000,576.000000) scale(0.100000,-0.100000)"
fill="#000000" stroke="none">
<path d="M2764 5421 c-28 -9 -58 -24 -66 -32 -8 -7 -39 -34 -68 -59 -29 -25
-58 -50 -64 -55 -6 -6 -47 -41 -91 -79 -44 -38 -84 -74 -90 -80 -5 -6 -32 -29
-58 -50 -27 -21 -56 -47 -65 -56 -10 -9 -51 -46 -92 -81 -41 -35 -88 -76 -105
-91 -16 -14 -39 -35 -51 -45 -104 -90 -151 -131 -170 -150 -13 -13 -25 -23
-28 -23 -3 0 -16 -10 -29 -22 -53 -50 -116 -106 -177 -157 -36 -30 -69 -59
-75 -65 -5 -6 -55 -49 -110 -96 -55 -47 -107 -92 -115 -100 -9 -8 -40 -35 -69
-60 -29 -25 -67 -58 -85 -75 -18 -16 -46 -41 -62 -54 -58 -49 -179 -155 -184
-160 -3 -3 -34 -31 -70 -61 -35 -30 -72 -62 -81 -70 -18 -18 -123 -109 -159
-140 -93 -79 -439 -381 -466 -407 -7 -7 -16 -13 -21 -13 -16 0 -92 -125 -103
-170 -13 -47 -7 -167 9 -197 5 -10 14 -30 21 -45 28 -60 127 -137 200 -156 8
-2 101 -5 205 -7 105 -2 192 -3 195 -4 8 -2 6 -121 -2 -121 -4 0 -5 -7 -1 -15
8 -23 9 -145 1 -145 -4 0 -5 -7 -1 -15 8 -23 9 -145 1 -145 -4 0 -5 -7 -1 -15
7 -20 10 -145 3 -145 -4 0 -4 -86 0 -100 5 -14 1 -90 -5 -100 -3 -5 -3 -10 2
-10 9 0 8 -83 -1 -106 -3 -8 -2 -14 2 -14 8 0 7 -83 -2 -105 -3 -8 -2 -15 2
-15 8 0 6 -85 -2 -106 -3 -8 -2 -14 2 -14 8 0 7 -132 -1 -155 -4 -8 -3 -15 1
-15 4 0 7 -27 7 -60 0 -33 -4 -60 -8 -60 -5 0 -6 -4 -2 -10 3 -5 7 -60 9 -122
2 -62 7 -129 11 -148 10 -49 75 -200 86 -200 5 0 9 -7 9 -15 0 -8 35 -50 78
-93 58 -58 99 -89 159 -119 154 -78 21 -73 1900 -73 1720 0 1687 0 1808 33 6
2 31 13 57 24 183 83 330 274 364 473 6 34 8 579 4 945 0 11 1 57 3 103 1 45
-1 82 -4 82 -4 0 -3 18 1 39 4 22 4 45 -1 52 -4 7 -6 17 -3 21 4 7 5 36 2 200
0 25 3 51 7 57 3 6 3 11 -2 11 -13 0 -8 179 6 193 8 8 66 12 184 12 94 1 188
5 207 9 64 15 154 82 186 139 42 73 47 94 48 182 1 82 -2 94 -28 138 -17 29
-80 93 -160 164 -72 64 -147 130 -166 147 -19 17 -73 65 -120 105 -47 41 -96
85 -109 98 -13 13 -27 23 -31 23 -15 0 -26 55 -20 102 3 26 3 55 -1 65 -3 9
-3 31 1 48 4 17 4 39 0 49 -3 11 -3 39 0 63 4 23 4 43 1 43 -4 0 -4 27 -1 61
3 33 3 62 -1 64 -3 3 -3 25 1 50 4 25 4 48 0 50 -4 2 -4 25 0 50 4 25 4 45 1
45 -4 0 -4 27 -1 61 3 33 3 62 -1 64 -3 3 -3 25 1 50 4 25 4 48 0 50 -4 2 -4
25 0 50 4 25 4 45 1 45 -4 0 -4 27 -1 61 3 33 2 63 -2 65 -5 3 -6 9 -4 13 8
13 9 84 2 130 -14 87 -66 166 -144 220 -40 28 -82 41 -152 47 -30 2 -60 6 -67
9 -7 2 -15 0 -18 -6 -4 -5 -10 -7 -15 -4 -5 3 -33 5 -62 5 -29 0 -62 -1 -73 0
-135 2 -184 -5 -240 -31 -50 -23 -125 -87 -125 -106 0 -7 -4 -13 -9 -13 -14 0
-44 -92 -47 -145 -4 -66 -5 -107 -3 -125 0 -8 1 -37 0 -65 0 -27 -1 -59 -1
-70 1 -11 0 -46 0 -77 l0 -57 -23 22 c-29 27 -138 123 -180 157 -16 14 -42 36
-56 50 -14 14 -80 72 -146 130 -66 57 -125 109 -131 115 -6 5 -40 35 -75 65
-35 30 -77 68 -94 84 -16 15 -47 42 -68 60 -22 17 -56 47 -76 66 -21 19 -51
46 -67 59 -16 14 -61 53 -101 87 -39 35 -93 73 -120 85 -65 30 -188 35 -259
10z m-44 -1901 c33 3 60 2 60 -2 0 -4 6 -5 14 -2 23 9 326 10 326 1 0 -5 4 -6
9 -2 5 3 38 5 73 5 143 0 191 -14 252 -77 50 -51 64 -106 65 -248 0 -64 2
-119 4 -122 3 -2 1 -19 -3 -37 -4 -19 -4 -39 0 -46 4 -6 4 -29 0 -51 -4 -22
-4 -41 0 -44 4 -2 4 -25 0 -50 -4 -25 -4 -45 -1 -45 3 0 5 -26 3 -57 -1 -32
-2 -78 -1 -103 5 -190 -13 -275 -74 -333 -31 -30 -85 -56 -127 -62 -28 -4
-191 -6 -260 -4 -8 1 -26 0 -40 0 -14 -1 -43 -2 -65 -1 -22 0 -66 -1 -98 -3
-31 -1 -57 0 -57 3 0 3 -28 4 -62 3 -160 -7 -268 -8 -268 -3 0 3 -13 5 -29 6
-89 3 -185 101 -197 199 -7 55 -6 193 1 204 3 6 2 11 -2 11 -5 0 -6 27 -3 61
3 33 2 63 -2 65 -5 3 -6 10 -2 15 5 9 6 120 1 252 -1 31 1 57 4 57 3 0 3 19
-1 43 -3 23 -3 61 1 84 3 23 2 44 -2 45 -4 2 1 30 12 63 22 72 80 137 142 158
24 8 84 14 140 15 55 0 102 3 105 6 3 4 9 3 14 -2 4 -4 35 -5 68 -2z"/>
</g>
</svg>
